<?xml version="1.0" encoding="UTF-8" standalone="no"?>
<!-- Created with Inkscape (http://www.inkscape.org/) -->

<svg
   xmlns:dc="http://purl.org/dc/elements/1.1/"
   xmlns:cc="http://creativecommons.org/ns#"
   xmlns:rdf="http://www.w3.org/1999/02/22-rdf-syntax-ns#"
   xmlns:svg="http://www.w3.org/2000/svg"
   xmlns="http://www.w3.org/2000/svg"
   xmlns:sodipodi="http://sodipodi.sourceforge.net/DTD/sodipodi-0.dtd"
   xmlns:inkscape="http://www.inkscape.org/namespaces/inkscape"
   id="svg2"
   version="1.1"
   inkscape:version="0.48.1 r9760"
   width="177.165"
   height="53.149625"
   xml:space="preserve"
   sodipodi:docname="St Aldates Logo_Master.ai"><metadata
     id="metadata8"><rdf:RDF><cc:Work
         rdf:about=""><dc:format>image/svg+xml</dc:format><dc:type
           rdf:resource="http://purl.org/dc/dcmitype/StillImage" /><dc:title></dc:title></cc:Work></rdf:RDF></metadata><defs
     id="defs6"><clipPath
       clipPathUnits="userSpaceOnUse"
       id="clipPath24"><path
         d="m 6,10.519 132.64,0 0,23.39 -132.64,0 0,-23.39 z"
         id="path26" /></clipPath><clipPath
       clipPathUnits="userSpaceOnUse"
       id="clipPath48"><path
         d="m 6,10.519 132.64,0 0,23.39 -132.64,0 0,-23.39 z"
         id="path50" /></clipPath></defs><sodipodi:namedview
     pagecolor="#ffffff"
     bordercolor="#666666"
     borderopacity="1"
     objecttolerance="10"
     gridtolerance="10"
     guidetolerance="10"
     inkscape:pageopacity="0"
     inkscape:pageshadow="2"
     inkscape:window-width="1680"
     inkscape:window-height="966"
     id="namedview4"
     showgrid="false"
     inkscape:zoom="2.7940057"
     inkscape:cx="88.582497"
     inkscape:cy="30.332857"
     inkscape:window-x="-4"
     inkscape:window-y="-1"
     inkscape:window-maximized="1"
     inkscape:current-layer="g10" /><g
     id="g10"
     inkscape:groupmode="layer"
     inkscape:label="St Aldates Logo_Master"
     transform="matrix(1.25,0,0,-1.25,0,53.149625)"><g
       id="g12"
       transform="translate(42.021,10.7832)"><path
         d="m 0,0 -2.93,0 -2.667,5.892 -8.499,0 -2.521,-5.892 -2.93,0 8.587,20.104 2.022,0 L 0,0 z m -12.983,8.47 6.213,0 -3.223,7.238 -2.99,-7.238 z"
         style="fill:#ffffff;fill-opacity:1;fill-rule:nonzero;stroke:none"
         id="path14" /></g><g
       id="g16"
       transform="translate(47.061,13.3623)"><path
         d="m 0,0 9.026,0 0,-2.579 -11.898,0 0,19.987 2.872,0 L 0,0 z"
         style="fill:#ffffff;fill-opacity:1;fill-rule:nonzero;stroke:none"
         id="path18" /></g><g
       id="g20"><g
         id="g22"
         clip-path="url(#clipPath24)"><g
           id="g28"
           transform="translate(58.6074,30.7705)"><path
             d="m 0,0 7.766,0 c 7.384,0 10.638,-5.275 10.638,-9.993 0,-5.129 -4.015,-9.994 -10.609,-9.994 L 0,-19.987 0,0 z m 2.872,-17.408 4.572,0 c 6.505,0 7.999,4.953 7.999,7.415 0,4.014 -2.548,7.414 -8.146,7.414 l -4.425,0 0,-14.829 z"
             style="fill:#ffffff;fill-opacity:1;fill-rule:nonzero;stroke:none"
             id="path30" /></g></g></g><g
       id="g32"
       transform="translate(95.8555,10.7832)"><path
         d="m 0,0 -2.931,0 -2.667,5.892 -8.499,0 -2.52,-5.892 -2.93,0 8.586,20.104 2.023,0 L 0,0 z m -12.982,8.47 6.212,0 -3.224,7.238 -2.988,-7.238 z"
         style="fill:#ffffff;fill-opacity:1;fill-rule:nonzero;stroke:none"
         id="path34" /></g><g
       id="g36"
       transform="translate(109.0293,28.1914)"><path
         d="m 0,0 -5.819,0 0,-17.408 -2.872,0 0,17.408 -6.916,0 0,2.579 16.705,0 L 0,0 z"
         style="fill:#ffffff;fill-opacity:1;fill-rule:nonzero;stroke:none"
         id="path38" /></g><g
       id="g40"
       transform="translate(124.1641,28.1914)"><path
         d="m 0,0 -8.471,0 0,-6.037 8.178,0 0,-2.579 -8.178,0 0,-6.213 8.735,0 0,-2.579 -11.606,0 0,19.987 L 0,2.579 0,0 z"
         style="fill:#ffffff;fill-opacity:1;fill-rule:nonzero;stroke:none"
         id="path42" /></g><g
       id="g44"><g
         id="g46"
         clip-path="url(#clipPath48)"><g
           id="g52"
           transform="translate(137.8496,26.374)"><path
             d="m 0,0 c -1.7,1.612 -3.342,2.081 -4.689,2.081 -1.846,0 -3.165,-0.967 -3.165,-2.374 0,-3.839 8.645,-3.78 8.645,-10.14 0,-3.136 -2.373,-5.421 -5.598,-5.421 -2.168,0 -3.926,0.585 -5.596,1.846 l 0,3.634 c 1.465,-1.876 3.311,-2.902 5.274,-2.902 2.228,0 3.253,1.407 3.253,2.521 0,4.132 -8.645,4.601 -8.645,10.081 0,3.253 2.403,5.333 6.067,5.333 1.524,0 3.047,-0.468 4.454,-1.406 L 0,0 z"
             style="fill:#ffffff;fill-opacity:1;fill-rule:nonzero;stroke:none"
             id="path54" /></g><g
           id="g56"
           transform="translate(14.2939,27.3037)"><path
             d="m 0,0 c -1.465,0.968 -2.843,1.377 -3.81,1.377 -1.055,0 -1.729,-0.498 -1.729,-1.2 0,-0.587 0.88,-1.29 3.195,-2.639 2.168,-1.435 2.96,-2.344 2.96,-3.691 0,-2.317 -1.847,-3.869 -4.338,-3.869 -1.612,0 -2.872,0.322 -4.572,1.202 l 0,2.812 c 1.7,-1.172 3.253,-1.728 4.308,-1.728 1.056,0.058 1.935,0.556 1.935,1.493 0,1.818 -6.155,2.785 -6.155,6.331 0,2.227 1.7,3.575 4.338,3.575 1.231,0 2.491,-0.351 3.868,-1.084 L 0,0 z"
             style="fill:#ffffff;fill-opacity:1;fill-rule:nonzero;stroke:none"
             id="path58" /></g></g></g><g
       id="g60"
       transform="translate(19.791,28.5518)"><path
         d="m 0,0 0,-11.481 2.335,5.464 0,6.017 2.552,0 1.003,2.334 -3.555,0 0,3.024 -2.335,0 0,-3.024 -3.265,0 L -3.265,0 0,0 z"
         style="fill:#ffffff;fill-opacity:1;fill-rule:nonzero;stroke:none"
         id="path62" /></g></g></svg>