<?xml version="1.0" encoding="UTF-8" standalone="no"?>
<svg
   xmlns:dc="http://purl.org/dc/elements/1.1/"
   xmlns:cc="http://creativecommons.org/ns#"
   xmlns:rdf="http://www.w3.org/1999/02/22-rdf-syntax-ns#"
   xmlns:svg="http://www.w3.org/2000/svg"
   xmlns="http://www.w3.org/2000/svg"
   xmlns:xlink="http://www.w3.org/1999/xlink"
   version="1.1"
   id="svg2327"
   height="48.000000px"
   width="48.000000px">
  <defs
     id="defs3">
    <linearGradient
       id="linearGradient2329">
      <stop
         style="stop-color:#ffffff;stop-opacity:1.0000000;"
         offset="0.0000000"
         id="stop2331" />
      <stop
         style="stop-color:#ffffff;stop-opacity:0.0000000;"
         offset="1.0000000"
         id="stop2333" />
    </linearGradient>
    <linearGradient
       id="linearGradient2321">
      <stop
         style="stop-color:#7b7f7a;stop-opacity:1;"
         offset="0"
         id="stop2323" />
      <stop
         style="stop-color:#7b7f7a;stop-opacity:0;"
         offset="1"
         id="stop2325" />
    </linearGradient>
    <linearGradient
       id="linearGradient2711">
      <stop
         style="stop-color:#909090;stop-opacity:1.0000000;"
         offset="0.0000000"
         id="stop2713" />
      <stop
         style="stop-color:#bebebe;stop-opacity:0.0000000;"
         offset="1.0000000"
         id="stop2715" />
    </linearGradient>
    <linearGradient
       id="linearGradient2701">
      <stop
         style="stop-color:#585956;stop-opacity:1.0000000;"
         offset="0.0000000"
         id="stop2703" />
      <stop
         style="stop-color:#bbbeb8;stop-opacity:1.0000000;"
         offset="1.0000000"
         id="stop2705" />
    </linearGradient>
    <linearGradient
       id="linearGradient2683">
      <stop
         style="stop-color:#000000;stop-opacity:1;"
         offset="0"
         id="stop2685" />
      <stop
         style="stop-color:#000000;stop-opacity:0;"
         offset="1"
         id="stop2687" />
    </linearGradient>
    <linearGradient
       id="linearGradient2675">
      <stop
         style="stop-color:#5b5b97;stop-opacity:1.0000000;"
         offset="0.0000000"
         id="stop2677" />
      <stop
         style="stop-color:#1b1b43;stop-opacity:1.0000000;"
         offset="1.0000000"
         id="stop2679" />
    </linearGradient>
    <linearGradient
       id="linearGradient2667">
      <stop
         style="stop-color:#ffffff;stop-opacity:1.0000000;"
         offset="0.0000000"
         id="stop2669" />
      <stop
         style="stop-color:#fcfcff;stop-opacity:0.0000000;"
         offset="1.0000000"
         id="stop2671" />
    </linearGradient>
    <linearGradient
       id="linearGradient2454">
      <stop
         id="stop2456"
         offset="0"
         style="stop-color:#000000;stop-opacity:1;" />
      <stop
         id="stop2458"
         offset="1"
         style="stop-color:#000000;stop-opacity:0;" />
    </linearGradient>
    <linearGradient
       id="linearGradient2415">
      <stop
         id="stop2417"
         offset="0"
         style="stop-color:#ffffff;stop-opacity:1;" />
      <stop
         id="stop2419"
         offset="1"
         style="stop-color:#ffffff;stop-opacity:0;" />
    </linearGradient>
    <linearGradient
       id="linearGradient2253">
      <stop
         id="stop2255"
         offset="0.0000000"
         style="stop-color:#8f8f8f;stop-opacity:1.0000000;" />
      <stop
         id="stop2257"
         offset="1.0000000"
         style="stop-color:#494949;stop-opacity:1.0000000;" />
    </linearGradient>
    <linearGradient
       id="linearGradient2245">
      <stop
         id="stop2247"
         offset="0.0000000"
         style="stop-color:#dde1d9;stop-opacity:1.0000000;" />
      <stop
         id="stop2249"
         offset="1.0000000"
         style="stop-color:#cacdc6;stop-opacity:1.0000000;" />
    </linearGradient>
    <linearGradient
       gradientUnits="userSpaceOnUse"
       y2="33.339787"
       x2="34.784473"
       y1="7.2293582"
       x1="8.6116238"
       gradientTransform="matrix(1.129863,0.000000,0.000000,0.885063,2.875000,1.570628)"
       id="linearGradient2251"
       xlink:href="#linearGradient2245" />
    <linearGradient
       gradientUnits="userSpaceOnUse"
       y2="55.200756"
       x2="34.974548"
       y1="13.004725"
       x1="17.698339"
       gradientTransform="matrix(1.108069,0.000000,0.000000,0.902471,5.500000,3.875000)"
       id="linearGradient2421"
       xlink:href="#linearGradient2415" />
    <radialGradient
       gradientUnits="userSpaceOnUse"
       r="8.7662794"
       fy="67.501709"
       fx="12.575710"
       cy="67.501709"
       cx="12.575710"
       gradientTransform="scale(1.925808,0.519262)"
       id="radialGradient2460"
       xlink:href="#linearGradient2454" />
    <linearGradient
       xlink:href="#linearGradient2667"
       id="linearGradient2673"
       gradientTransform="matrix(1.238977,0.000000,0.000000,0.895955,5.090553,1.543476)"
       x1="11.492236"
       y1="1.6537577"
       x2="17.199417"
       y2="26.729263"
       gradientUnits="userSpaceOnUse" />
    <linearGradient
       xlink:href="#linearGradient2675"
       id="linearGradient2681"
       gradientTransform="matrix(1.174139,0.000000,0.000000,0.945431,5.221825,1.543476)"
       x1="19.150396"
       y1="32.622238"
       x2="16.315819"
       y2="8.8666229"
       gradientUnits="userSpaceOnUse" />
    <linearGradient
       xlink:href="#linearGradient2683"
       id="linearGradient2689"
       gradientTransform="matrix(5.705159,0.000000,0.000000,0.175280,5.500000,2.195627)"
       x1="3.7069976"
       y1="171.29134"
       x2="3.7069974"
       y2="162.45061"
       gradientUnits="userSpaceOnUse" />
    <linearGradient
       xlink:href="#linearGradient2701"
       id="linearGradient2707"
       gradientTransform="matrix(1.816345,0.000000,0.000000,1.278927,2.500000,-40.24508)"
       x1="12.206709"
       y1="53.535141"
       x2="12.127711"
       y2="64.892525"
       gradientUnits="userSpaceOnUse" />
    <linearGradient
       xlink:href="#linearGradient2711"
       id="linearGradient2717"
       x1="34.300991"
       y1="3.9384086"
       x2="35.520542"
       y2="3.8451097"
       gradientUnits="userSpaceOnUse" />
    <linearGradient
       xlink:href="#linearGradient2711"
       id="linearGradient2721"
       gradientUnits="userSpaceOnUse"
       x1="34.300991"
       y1="3.9384086"
       x2="35.520542"
       y2="3.8451097" />
    <linearGradient
       xlink:href="#linearGradient2711"
       id="linearGradient2725"
       gradientUnits="userSpaceOnUse"
       x1="34.300991"
       y1="3.9384086"
       x2="35.520542"
       y2="3.8451097" />
    <linearGradient
       xlink:href="#linearGradient2711"
       id="linearGradient2729"
       gradientUnits="userSpaceOnUse"
       x1="34.300991"
       y1="3.9384086"
       x2="35.520542"
       y2="3.8451097" />
    <linearGradient
       xlink:href="#linearGradient2711"
       id="linearGradient2733"
       gradientUnits="userSpaceOnUse"
       x1="34.300991"
       y1="3.9384086"
       x2="35.520542"
       y2="3.8451097" />
    <linearGradient
       xlink:href="#linearGradient2253"
       id="linearGradient1561"
       gradientUnits="userSpaceOnUse"
       gradientTransform="matrix(1.104397,0.000000,0.000000,0.905471,4.500000,2.875000)"
       x1="10.390738"
       y1="5.3817744"
       x2="32.536823"
       y2="31.246054" />
    <linearGradient
       xlink:href="#linearGradient2321"
       id="linearGradient2327"
       x1="-35.658386"
       y1="33.416473"
       x2="-35.658386"
       y2="28.205938"
       gradientUnits="userSpaceOnUse" />
    <linearGradient
       xlink:href="#linearGradient2329"
       id="linearGradient2337"
       x1="-35.122688"
       y1="34.242237"
       x2="-35.074745"
       y2="30.962345"
       gradientUnits="userSpaceOnUse" />
    <radialGradient
       gradientUnits="userSpaceOnUse"
       r="12.289036"
       fy="63.965389"
       fx="15.115514"
       cy="63.965389"
       cx="15.115514"
       gradientTransform="matrix(1.64399,0,0,0.75623549,-20.796345,-15.3752)"
       id="radialGradient4120"
       xlink:href="#linearGradient2683" />
    <radialGradient
       gradientUnits="userSpaceOnUse"
       r="29.993349"
       fy="15.716079"
       fx="18.247644"
       cy="15.716079"
       cx="18.247644"
       gradientTransform="matrix(0.999989,0,0,1.000011,-20.796345,-5.1027898)"
       id="radialGradient3968"
       xlink:href="#linearGradient3962" />
    <linearGradient
       id="linearGradient3962">
      <stop
         id="stop3964"
         offset="0.0000000"
         style="stop-color:#d3e9ff;stop-opacity:1.0000000;" />
      <stop
         id="stop4134"
         offset="0.15517241"
         style="stop-color:#d3e9ff;stop-opacity:1.0000000;" />
      <stop
         id="stop4346"
         offset="0.75000000"
         style="stop-color:#4074ae;stop-opacity:1.0000000;" />
      <stop
         id="stop3966"
         offset="1.0000000"
         style="stop-color:#36486c;stop-opacity:1.0000000;" />
    </linearGradient>
    <radialGradient
       gradientUnits="userSpaceOnUse"
       r="43.526714"
       fy="12.142302"
       fx="15.601279"
       cy="12.142302"
       cx="15.601279"
       gradientTransform="matrix(0.999989,0,0,1.000011,-20.796345,-5.1027898)"
       id="radialGradient4132"
       xlink:href="#linearGradient4126" />
    <linearGradient
       id="linearGradient4126">
      <stop
         id="stop4128"
         offset="0.0000000"
         style="stop-color:#ffffff;stop-opacity:1.0000000;" />
      <stop
         id="stop4130"
         offset="1.0000000"
         style="stop-color:#ffffff;stop-opacity:0.16494845;" />
    </linearGradient>
    <linearGradient
       gradientUnits="userSpaceOnUse"
       y2="21.041553"
       x2="-22.252472"
       y1="30.057165"
       x1="-25.176178"
       id="linearGradient6007"
       xlink:href="#linearGradient2329"
       gradientTransform="matrix(1.2865169,0,0,0.9999999,34.484693,-6.2473477)" />
    <linearGradient
       y2="22.661524"
       x2="-22.113543"
       y1="30.057165"
       x1="-25.176178"
       gradientUnits="userSpaceOnUse"
       id="linearGradient6011"
       xlink:href="#linearGradient2329"
       gradientTransform="matrix(1.2865168,0,0,0.99999987,14.937996,0.89420693)" />
    <radialGradient
       r="6.7175145"
       fy="12.493138"
       fx="12.071323"
       cy="12.493138"
       cx="12.071323"
       gradientUnits="userSpaceOnUse"
       id="radialGradient5987"
       xlink:href="#linearGradient2329" />
    <linearGradient
       y2="22.661524"
       x2="-22.113543"
       y1="28.337734"
       x1="-22.822565"
       gradientUnits="userSpaceOnUse"
       id="linearGradient6015"
       xlink:href="#linearGradient2329"
       gradientTransform="matrix(1.2865167,0,0,0.99999972,19.616173,-37.525553)" />
    <linearGradient
       y2="21.336346"
       x2="-21.962101"
       y1="15.649428"
       x1="-21.658581"
       gradientUnits="userSpaceOnUse"
       id="linearGradient6019"
       xlink:href="#linearGradient2329"
       gradientTransform="matrix(1.2571175,0,0,0.97714444,13.199632,-4.0987869)" />
    <radialGradient
       r="6.7175145"
       fy="12.493138"
       fx="12.071323"
       cy="12.493138"
       cx="12.071323"
       gradientUnits="userSpaceOnUse"
       id="radialGradient5983"
       xlink:href="#linearGradient2329" />
    <radialGradient
       r="6.7175145"
       fy="12.493138"
       fx="12.071323"
       cy="12.493138"
       cx="12.071323"
       gradientUnits="userSpaceOnUse"
       id="radialGradient5985"
       xlink:href="#linearGradient2329" />
    <radialGradient
       r="6.7175145"
       fy="12.493138"
       fx="12.071323"
       cy="12.493138"
       cx="12.071323"
       gradientUnits="userSpaceOnUse"
       id="radialGradient5989"
       xlink:href="#linearGradient2329" />
  </defs>
  <metadata
     id="metadata4">
    <rdf:RDF>
      <cc:Work
         rdf:about="">
        <dc:format>image/svg+xml</dc:format>
        <dc:type
           rdf:resource="http://purl.org/dc/dcmitype/StillImage" />
        <dc:title></dc:title>
        <dc:date />
        <dc:creator>
          <cc:Agent>
            <dc:title>Jakub Steiner</dc:title>
          </cc:Agent>
        </dc:creator>
        <dc:subject>
          <rdf:Bag>
            <rdf:li>video</rdf:li>
            <rdf:li>display</rdf:li>
            <rdf:li>monitor</rdf:li>
            <rdf:li>LCD</rdf:li>
            <rdf:li>CRT</rdf:li>
          </rdf:Bag>
        </dc:subject>
        <cc:license
           rdf:resource="http://creativecommons.org/licenses/publicdomain/" />
        <dc:source>http://jimmac.musichall.cz/</dc:source>
      </cc:Work>
      <cc:License
         rdf:about="http://creativecommons.org/licenses/publicdomain/">
        <cc:permits
           rdf:resource="http://creativecommons.org/ns#Reproduction" />
        <cc:permits
           rdf:resource="http://creativecommons.org/ns#Distribution" />
        <cc:permits
           rdf:resource="http://creativecommons.org/ns#DerivativeWorks" />
      </cc:License>
    </rdf:RDF>
  </metadata>
  <g
     id="layer1">
    <ellipse
       ry="4.552"
       rx="16.882174"
       cy="35.051105"
       cx="24.218407"
       transform="matrix(1.050251,0,0,1.867888,-0.945558,-28.10611)"
       id="path2452"
       style="color:#000000;display:inline;overflow:visible;visibility:visible;opacity:0.50857143;fill:url(#radialGradient2460);fill-opacity:1;fill-rule:evenodd;stroke:none;stroke-width:1;stroke-linecap:round;stroke-linejoin:miter;stroke-miterlimit:4;stroke-dashoffset:0;stroke-opacity:0.70063692;marker:none;marker-start:none;marker-mid:none;marker-end:none" />
    <ellipse
       ry="3.939595"
       rx="9.3944187"
       cy="29.716238"
       cx="-35.658386"
       transform="translate(60.03339,8.07843)"
       id="path2407"
       style="color:#000000;display:inline;overflow:visible;visibility:visible;fill:#adb0aa;fill-opacity:1;fill-rule:evenodd;stroke:#4b4d4a;stroke-width:1;stroke-linecap:butt;stroke-linejoin:miter;stroke-miterlimit:4;stroke-dashoffset:0;stroke-opacity:1;marker:none;marker-start:none;marker-mid:none;marker-end:none" />
    <ellipse
       ry="3.939595"
       rx="9.3944187"
       cy="29.716238"
       cx="-35.658386"
       style="color:#000000;display:inline;overflow:visible;visibility:visible;fill:none;fill-opacity:1;fill-rule:evenodd;stroke:url(#linearGradient2327);stroke-width:1.15713382;stroke-linecap:butt;stroke-linejoin:miter;stroke-miterlimit:4;stroke-dasharray:none;stroke-dashoffset:0;stroke-opacity:1;marker:none;marker-start:none;marker-mid:none;marker-end:none"
       id="path1825"
       transform="matrix(0.902373,0,0,0.82765,56.55215,12.86792)" />
    <ellipse
       ry="3.939595"
       rx="9.3944187"
       cy="29.716238"
       cx="-35.658386"
       transform="matrix(0.837548,0,0,0.852655,54.17811,11.00615)"
       id="path2983"
       style="color:#000000;display:inline;overflow:visible;visibility:visible;fill:none;fill-opacity:1;fill-rule:evenodd;stroke:url(#linearGradient2337);stroke-width:1.18333709;stroke-linecap:butt;stroke-linejoin:miter;stroke-miterlimit:4;stroke-dasharray:none;stroke-dashoffset:0;stroke-opacity:1;marker:none;marker-start:none;marker-mid:none;marker-end:none" />
    <rect
       style="color:#000000;display:inline;overflow:visible;visibility:visible;fill:url(#linearGradient2707);fill-opacity:1;fill-rule:evenodd;stroke:none;stroke-width:0.60872948;stroke-linecap:butt;stroke-linejoin:miter;stroke-miterlimit:4;stroke-dashoffset:0;stroke-opacity:1;marker:none;marker-start:none;marker-mid:none;marker-end:none"
       id="rect2699"
       width="9.0396729"
       height="6.3650389"
       x="19.972397"
       y="31.078613" />
    <path
       id="rect2404"
       d="M 7.5809024,4.5706221 H 41.169097 c 0.911342,0 1.624147,0.5834818 1.666752,1.401587 l 1.332044,25.5781139 c 0.05821,1.117735 -0.901056,2.020305 -2.020305,2.020305 H 6.602412 c -1.1192491,0 -2.078514,-0.90257 -2.0203052,-2.020305 L 5.9141506,5.9722091 c 0.040284,-0.7735346 0.5475027,-1.401587 1.6667518,-1.401587 z"
       style="color:#000000;display:inline;overflow:visible;visibility:visible;fill:url(#linearGradient2251);fill-opacity:1;fill-rule:evenodd;stroke:url(#linearGradient1561);stroke-width:1;stroke-linecap:butt;stroke-linejoin:miter;stroke-miterlimit:4;stroke-dashoffset:0;stroke-opacity:1;marker:none;marker-start:none;marker-mid:none;marker-end:none" />
    <path
       style="fill:url(#linearGradient2681);fill-opacity:1;fill-rule:evenodd;stroke:#000079;stroke-width:0.5;stroke-linecap:butt;stroke-linejoin:round;stroke-miterlimit:4;stroke-dasharray:none;stroke-opacity:1"
       d="M 8.910535,7.180827 7.6683398,29.226144 H 39.318729 L 37.983712,7.274256 Z"
       id="path2377" />
    <path
       id="path2393"
       d="M 6.6774331,31.610789 H 42.10591"
       style="fill:none;fill-opacity:0.75;fill-rule:evenodd;stroke:url(#linearGradient2689);stroke-width:0.99618119;stroke-linecap:round;stroke-linejoin:miter;stroke-miterlimit:4;stroke-opacity:0.24840764" />
    <path
       style="color:#000000;display:inline;overflow:visible;visibility:visible;fill:none;fill-opacity:1;fill-rule:evenodd;stroke:url(#linearGradient2421);stroke-width:0.99999964;stroke-linecap:butt;stroke-linejoin:miter;stroke-miterlimit:4;stroke-dashoffset:0;stroke-opacity:0.70063692;marker:none;marker-start:none;marker-mid:none;marker-end:none"
       d="M 7.4145985,5.5813396 41.260101,5.5435383 c 0.283697,-3.169e-4 0.559302,0.2372498 0.582105,0.6525437 l 1.361892,24.803248 c 0.05804,1.057031 -0.539749,1.785871 -1.598371,1.785871 H 7.0817583 c -1.0586228,0 -1.5930144,-0.728791 -1.5358714,-1.785871 L 6.8699773,6.505163 C 6.9086732,5.7893326 7.0363626,5.581762 7.4145985,5.5813396 Z"
       id="path2397" />
    <path
       id="path2443"
       d="M 9.211536,7.621363 8.409007,25.491693 C 19.453645,23.091063 23.83047,14.999494 37.563039,12.344943 L 37.401567,7.687427 Z"
       style="opacity:0.53142856;fill:url(#linearGradient2673);fill-opacity:1;fill-rule:evenodd;stroke:none;stroke-width:0.25000001pt;stroke-linecap:butt;stroke-linejoin:miter;stroke-opacity:1" />
    <circle
       r="0.83968931"
       cy="3.9384086"
       cx="34.780815"
       style="color:#000000;display:inline;overflow:visible;visibility:visible;fill:url(#linearGradient2717);fill-opacity:1;fill-rule:evenodd;stroke:none;stroke-width:0.5;stroke-linecap:butt;stroke-linejoin:miter;stroke-miterlimit:4;stroke-dashoffset:0;stroke-opacity:1;marker:none;marker-start:none;marker-mid:none;marker-end:none"
       id="path2709"
       transform="matrix(1.331237,0,0,0.658449,-5.91933,5.728866)" />
    <circle
       r="0.83968931"
       cy="3.9384086"
       cx="34.780815"
       transform="matrix(1.331237,0,0,0.658449,-5.80573,7.83465)"
       id="path2719"
       style="color:#000000;display:inline;overflow:visible;visibility:visible;fill:url(#linearGradient2721);fill-opacity:1;fill-rule:evenodd;stroke:none;stroke-width:0.5;stroke-linecap:butt;stroke-linejoin:miter;stroke-miterlimit:4;stroke-dashoffset:0;stroke-opacity:1;marker:none;marker-start:none;marker-mid:none;marker-end:none" />
    <circle
       r="0.83968931"
       cy="3.9384086"
       cx="34.780815"
       style="color:#000000;display:inline;overflow:visible;visibility:visible;fill:url(#linearGradient2725);fill-opacity:1;fill-rule:evenodd;stroke:none;stroke-width:0.5;stroke-linecap:butt;stroke-linejoin:miter;stroke-miterlimit:4;stroke-dashoffset:0;stroke-opacity:1;marker:none;marker-start:none;marker-mid:none;marker-end:none"
       id="path2723"
       transform="matrix(1.331237,0,0,0.658449,-5.69213,9.83465)" />
    <circle
       r="0.83968931"
       cy="3.9384086"
       cx="34.780815"
       transform="matrix(1.331237,0,0,0.658449,-5.57853,11.83465)"
       id="path2727"
       style="color:#000000;display:inline;overflow:visible;visibility:visible;fill:url(#linearGradient2729);fill-opacity:1;fill-rule:evenodd;stroke:none;stroke-width:0.5;stroke-linecap:butt;stroke-linejoin:miter;stroke-miterlimit:4;stroke-dashoffset:0;stroke-opacity:1;marker:none;marker-start:none;marker-mid:none;marker-end:none" />
    <circle
       r="0.83968931"
       cy="3.9384086"
       cx="34.780815"
       style="color:#000000;display:inline;overflow:visible;visibility:visible;fill:url(#linearGradient2733);fill-opacity:1;fill-rule:evenodd;stroke:none;stroke-width:0.5;stroke-linecap:butt;stroke-linejoin:miter;stroke-miterlimit:4;stroke-dashoffset:0;stroke-opacity:1;marker:none;marker-start:none;marker-mid:none;marker-end:none"
       id="path2731"
       transform="matrix(1.331237,0,0,0.658449,-5.46493,13.83465)" />
    <path
       style="font-style:normal;font-variant:normal;font-weight:bold;font-stretch:normal;font-size:0.9029026px;font-family:'Bitstream Vera Sans';writing-mode:lr-tb;text-anchor:start;fill:#4a4a4a;fill-opacity:1;stroke:none;stroke-width:1.00000003pt;stroke-linecap:butt;stroke-linejoin:miter;stroke-opacity:1"
       d="m 22.5,30.192666 h 0.281716 c 0.08376,1e-6 0.147985,0.01866 0.19266,0.05599 0.04497,0.03703 0.06745,0.08994 0.06745,0.158714 -1e-6,0.06907 -0.02248,0.122268 -0.06745,0.159595 -0.04467,0.03703 -0.108895,0.05555 -0.19266,0.05555 h -0.111981 v 0.22837 H 22.5 v -0.658219 m 0.169735,0.123003 v 0.183843 h 0.0939 c 0.03292,0 0.05834,-0.0079 0.07627,-0.02381 0.01793,-0.01617 0.02689,-0.03894 0.02689,-0.06834 0,-0.02939 -0.009,-0.05202 -0.02689,-0.06789 -0.01793,-0.01587 -0.04335,-0.02381 -0.07627,-0.02381 h -0.0939 m 0.792244,-0.0119 c -0.05173,1e-6 -0.09185,0.01911 -0.120358,0.05731 -0.02851,0.03821 -0.04276,0.092 -0.04276,0.161359 0,0.06907 0.01425,0.122709 0.04276,0.160918 0.02851,0.03821 0.06863,0.05731 0.120358,0.05731 0.05202,0 0.09229,-0.0191 0.120799,-0.05731 0.02851,-0.03821 0.04276,-0.09185 0.04276,-0.160918 -10e-7,-0.06936 -0.01425,-0.123149 -0.04276,-0.161359 -0.02851,-0.03821 -0.06878,-0.05731 -0.120799,-0.05731 m 0,-0.123003 c 0.105808,1e-6 0.188692,0.03027 0.248651,0.09082 0.05996,0.06055 0.08994,0.144165 0.08994,0.250855 -1e-6,0.106397 -0.02998,0.189868 -0.08994,0.250414 -0.05996,0.06055 -0.142843,0.09082 -0.248651,0.09082 -0.105515,0 -0.188399,-0.03027 -0.248651,-0.09082 -0.05996,-0.06055 -0.08994,-0.144017 -0.08994,-0.250414 0,-0.10669 0.02998,-0.190309 0.08994,-0.250855 0.06025,-0.06055 0.143136,-0.09082 0.248651,-0.09082 m 0.466441,0.0119 h 0.189574 l 0.239393,0.451451 v -0.451451 h 0.160918 v 0.658219 H 24.32873 l -0.239392,-0.451451 v 0.451451 H 23.92842 v -0.658219 m 0.663069,0 h 0.185606 l 0.149896,0.234543 0.149896,-0.234543 h 0.186048 l -0.250856,0.380912 v 0.277307 h -0.169735 v -0.277307 l -0.250855,-0.380912"
       id="text2735" />
    <g
       transform="matrix(0.49548607,0,0,0.49548607,22.011799,8.9620942)"
       id="g1129">
      <ellipse
         style="fill:url(#radialGradient4120);fill-opacity:1;stroke:none;stroke-width:1.11500847;stroke-opacity:1"
         id="path4112"
         cx="4.0534067"
         cy="32.997719"
         rx="20.203051"
         ry="9.2934084" />
      <path
         style="fill:url(#radialGradient3968);fill-opacity:1;fill-rule:nonzero;stroke:#39396c;stroke-miterlimit:4;stroke-opacity:1"
         d="m 23.163508,18.382709 c 0,10.709718 -8.682103,19.391723 -19.390348,19.391723 -10.709226,0 -19.390839,-8.682103 -19.390839,-19.391723 0,-10.7092268 8.681613,-19.3903471 19.390839,-19.3903471 10.708245,0 19.390348,8.6811203 19.390348,19.3903471 z"
         id="path3214" />
      <g
         id="g4136"
         style="opacity:1;fill:#204a87;fill-opacity:0.71345029;fill-rule:nonzero;stroke:none;stroke-miterlimit:4"
         transform="matrix(0.982371,0,0,0.982371,-20.675266,-4.8698758)">
        <g
           id="g4138"
           style="fill:#204a87">
          <g
             id="g4142"
             style="fill:#204a87">
            <path
               d="m 44.0713,20.7144 c 0,0.2627 0,0 0,0 l -0.5449,0.6172 c -0.334,-0.3936 -0.709,-0.7246 -1.0898,-1.0703 l -0.8359,0.123 -0.7637,-0.8633 v 1.0684 l 0.6543,0.4951 0.4355,0.4932 0.582,-0.6582 c 0.1465,0.2744 0.291,0.5488 0.4365,0.8232 v 0.8223 l -0.6553,0.7402 -1.1992,0.8232 -0.9082,0.9063 -0.582,-0.6602 0.291,-0.7402 -0.5811,-0.6582 -0.9814,-2.0977 -0.8359,-0.9453 -0.2188,0.2461 0.3281,1.1934 0.6172,0.6992 c 0.3525,1.0176 0.7012,1.9902 1.1641,2.9629 0.7178,0 1.3945,-0.0762 2.1074,-0.166 v 0.5762 l -0.8721,2.1392 -0.7998,0.9043 -0.6543,1.4004 c 0,0.7676 0,1.5352 0,2.3027 l 0.2188,0.9063 -0.3633,0.4102 -0.8008,0.4941 -0.8359,0.6992 0.6914,0.7813 -0.9453,0.8242 0.1816,0.5332 -1.418,1.6055 h -0.9443 l -0.7998,0.4941 H 33.6396 V 38.2814 L 33.4228,36.963 c -0.2813,-0.8262 -0.5742,-1.6465 -0.8721,-2.4668 0,-0.6055 0.0361,-1.2051 0.0723,-1.8105 l 0.3643,-0.8223 -0.5098,-0.9883 0.0371,-1.3574 -0.6914,-0.7813 0.3457,-1.1309 -0.5625,-0.6382 H 30.624 l -0.3271,-0.3701 -0.9814,0.6177 -0.3994,-0.4536 -0.9092,0.7817 c -0.6172,-0.6997 -1.2354,-1.3989 -1.8535,-2.0981 l -0.7266,-1.7285 0.6543,-0.9863 -0.3633,-0.4111 0.7988,-1.8936 c 0.6563,-0.8164 1.3418,-1.5996 2.0352,-2.3857 l 1.2363,-0.3291 1.3809,-0.1641 0.9453,0.2471 1.3447,1.3564 0.4727,-0.5342 0.6533,-0.082 1.2363,0.4111 h 0.9453 l 0.6543,-0.5762 0.291,-0.4111 -0.6553,-0.4111 -1.0908,-0.082 c -0.3027,-0.4199 -0.584,-0.8613 -0.9434,-1.2344 l -0.3643,0.1641 -0.1455,1.0703 -0.6543,-0.7402 -0.1445,-0.8242 -0.7266,-0.5742 h -0.292 l 0.7275,0.8223 -0.291,0.7402 -0.5811,0.1641 0.3633,-0.7402 -0.6553,-0.3281 -0.5801,-0.6582 -1.0918,0.2461 -0.1445,0.3281 -0.6543,0.4121 -0.3633,0.9053 -0.9082,0.4521 -0.4004,-0.4521 h -0.4355 v -1.4814 l 0.9453,-0.4941 h 0.7266 l -0.1465,-0.5752 -0.5801,-0.5762 0.9805,-0.2061 0.5449,-0.6162 0.4355,-0.7412 h 0.8008 l -0.2188,-0.5752 0.5098,-0.3291 v 0.6582 l 1.0898,0.2461 1.0898,-0.9043 0.0732,-0.4121 0.9443,-0.6577 c -0.3418,0.0425 -0.6836,0.0737 -1.0176,0.1646 V 9.9766 L 34.2213,9.1538 H 33.858 l -0.7984,0.7402 -0.2188,0.4116 0.2188,0.5767 -0.3643,0.9863 -0.5811,-0.3291 -0.5078,-0.5752 -0.8008,0.5752 -0.291,-1.3159 1.3809,-0.9048 V 8.8247 l 0.873,-0.5757 1.3809,-0.3296 0.9453,0.3296 1.7441,0.3291 -0.4355,0.4932 H 35.458 l 0.9453,0.9873 0.7266,-0.8223 0.2207,-0.3618 c 0,0 2.7871,2.498 4.3799,5.2305 1.5928,2.7334 2.3408,5.9551 2.3408,6.6094 z"
               id="path4144"
               style="fill:#204a87" />
          </g>
        </g>
        <g
           id="g4146"
           style="fill:#204a87">
          <g
             id="g4150"
             style="fill:#204a87">
            <path
               d="m 26.0703,9.2363 -0.0732,0.4932 0.5098,0.3291 0.8711,-0.5757 -0.4355,-0.4937 -0.582,0.3296 -0.29,-0.0825"
               id="path4152"
               style="fill:#204a87" />
          </g>
        </g>
        <g
           id="g4154"
           style="fill:#204a87">
          <g
             id="g4158"
             style="fill:#204a87">
            <path
               d="m 26.8701,5.8633 -1.8906,-0.7407 -2.1797,0.2466 -2.6904,0.7402 -0.5088,0.4941 1.6719,1.1514 v 0.6582 l -0.6543,0.6582 0.873,1.729 0.5801,-0.3301 0.7285,-1.1514 c 1.123,-0.3472 2.1299,-0.7407 3.1973,-1.2344 l 0.873,-2.2212"
               id="path4160"
               style="fill:#204a87" />
          </g>
        </g>
        <g
           id="g4162"
           style="fill:#204a87">
          <g
             id="g4166"
             style="fill:#204a87">
            <path
               d="m 28.833,12.7749 -0.291,-0.7412 -0.5098,0.165 0.1465,0.9043 0.6543,-0.3281"
               id="path4168"
               style="fill:#204a87" />
          </g>
        </g>
        <g
           id="g4170"
           style="fill:#204a87">
          <g
             id="g4174"
             style="fill:#204a87">
            <path
               d="m 29.123,12.6089 -0.1455,0.9883 0.7998,-0.165 0.5811,-0.5752 -0.5088,-0.4941 C 29.6787,11.9078 29.4824,11.483 29.2685,11.0465 H 28.833 v 0.4932 l 0.29,0.3291 v 0.7402"
               id="path4176"
               style="fill:#204a87" />
          </g>
        </g>
        <g
           id="g4178"
           style="fill:#204a87">
          <g
             id="g4182"
             style="fill:#204a87">
            <path
               d="m 18.3652,28.2422 -0.582,-1.1523 -1.0903,-0.2466 -0.5815,-1.5625 -1.4536,0.1641 -1.2354,-0.9043 -1.3091,1.1514 v 0.1816 c -0.396,-0.1143 -0.8828,-0.1299 -1.2354,-0.3467 l -0.291,-0.8223 v -0.9053 l -0.8721,0.082 c 0.0728,-0.5762 0.145,-1.1514 0.2183,-1.7275 H 9.4238 L 8.9155,22.812 8.4062,23.0581 7.6791,22.6479 7.6063,21.7426 7.7518,20.7553 8.8426,19.933 h 0.8721 l 0.145,-0.4941 1.0903,0.2461 0.7998,0.9883 0.1455,-1.6465 1.3813,-1.1514 0.5088,-1.2344 1.0176,-0.4111 0.5815,-0.8223 1.3081,-0.248 0.6548,-0.9863 c -0.6543,0 -1.3086,0 -1.9629,0 l 1.2358,-0.5762 h 0.8716 l 1.2363,-0.4121 0.1455,-0.4922 -0.4365,-0.4121 -0.5088,-0.165 0.1455,-0.4932 -0.3633,-0.7402 -0.8726,0.3281 0.1455,-0.6577 -1.0176,-0.5762 -0.7993,1.3979 0.0723,0.4941 -0.7993,0.3301 -0.5093,1.0693 -0.2178,-0.9873 -1.3813,-0.5762 -0.2183,-0.7402 1.8174,-1.0703 0.7998,-0.7402 0.0728,-0.9048 -0.436,-0.2471 -0.5815,-0.0825 -0.3633,0.9053 c 0,0 -0.6079,0.1191 -0.7642,0.1577 -1.9961,1.8394 -6.0293,5.8101 -6.9663,13.3062 0.0371,0.1738 0.6792,1.1816 0.6792,1.1816 l 1.5264,0.9043 1.5264,0.4121 0.6548,0.8232 1.0171,0.7402 0.5815,-0.082 0.436,0.1963 v 0.1328 l -0.5811,1.563 -0.4365,0.6582 0.1455,0.3301 -0.3633,1.2324 1.3086,2.3867 1.3081,1.1523 0.582,0.8223 -0.0732,1.7285 0.4365,0.9863 -0.4365,1.8926 c 0,0 -0.0342,-0.0117 0.0215,0.1777 0.0562,0.1895 2.3291,1.4512 2.4736,1.3438 0.144,-0.1094 0.2671,-0.2051 0.2671,-0.2051 l -0.145,-0.4102 0.5811,-0.5762 0.2183,-0.5762 0.9453,-0.3301 0.7266,-1.8105 -0.2178,-0.4922 0.5078,-0.7402 1.0908,-0.248 0.582,-1.3164 -0.1455,-1.6445 0.8721,-1.2344 0.1455,-1.2344 C 20.7331,29.4607 19.5495,28.8513 18.365,28.242"
               id="path4184"
               style="fill:#204a87" />
          </g>
        </g>
        <g
           id="g4186"
           style="fill:#204a87">
          <g
             id="g4190"
             style="fill:#204a87">
            <path
               d="m 16.7656,9.5649 0.7266,0.4937 h 0.582 V 9.4829 l -0.7266,-0.3291 -0.582,0.4111"
               id="path4192"
               style="fill:#204a87" />
          </g>
        </g>
        <g
           id="g4194"
           style="fill:#204a87">
          <g
             id="g4198"
             style="fill:#204a87">
            <path
               d="M 14.876,8.9072 14.5122,9.812 h 0.7271 L 15.6031,8.9892 C 15.9166,8.7675 16.2286,8.5444 16.5479,8.331 l 0.7271,0.2471 c 0.4844,0.3291 0.9688,0.6582 1.4536,0.9868 L 19.4561,8.9072 18.6558,8.5781 18.292,7.8374 16.9111,7.6728 16.8383,7.2612 16.184,7.4262 15.8936,8.002 15.5298,7.2613 l -0.145,0.3291 0.0728,0.8228 -0.5816,0.494"
               id="path4200"
               style="fill:#204a87" />
          </g>
        </g>
        <g
           id="g4202"
           style="fill:#204a87">
          <g
             style="opacity:0.75;fill:#204a87"
             id="g4204">
            <path
               id="path4206"
               d=""
               style="fill:#204a87" />
          </g>
          <g
             id="g4208"
             style="fill:#204a87">
            <path
               id="path4210"
               d=""
               style="fill:#204a87" />
          </g>
        </g>
        <g
           id="g4212"
           style="fill:#204a87">
          <g
             style="opacity:0.75;fill:#204a87"
             id="g4214">
            <path
               id="path4216"
               d=""
               style="fill:#204a87" />
          </g>
          <g
             id="g4218"
             style="fill:#204a87">
            <path
               id="path4220"
               d=""
               style="fill:#204a87" />
          </g>
        </g>
        <g
           id="g4222"
           style="fill:#204a87">
          <g
             id="g4226"
             style="fill:#204a87">
            <path
               d="M 17.4922,6.8496 17.856,6.521 18.5831,6.3564 c 0.498,-0.2422 0.998,-0.4053 1.5264,-0.5762 l -0.29,-0.4937 -0.9385,0.1348 -0.4434,0.4419 -0.731,0.106 -0.6499,0.3052 -0.3159,0.1528 -0.1929,0.2583 0.9443,0.1641"
               id="path4228"
               style="fill:#204a87" />
          </g>
        </g>
        <g
           id="g4230"
           style="fill:#204a87">
          <g
             id="g4234"
             style="fill:#204a87">
            <path
               d="m 18.7285,14.6665 0.4365,-0.6582 -0.6548,-0.4932 0.2183,1.1514"
               id="path4236"
               style="fill:#204a87" />
          </g>
        </g>
      </g>
      <path
         style="opacity:0.39560439;fill:none;fill-opacity:1;fill-rule:nonzero;stroke:url(#radialGradient4132);stroke-miterlimit:4;stroke-opacity:1"
         d="m 22.178748,18.382744 c 0,10.16582 -8.241178,18.406906 -18.4056,18.406906 -10.165354,0 -18.406067,-8.241179 -18.406067,-18.406906 0,-10.1653538 8.240713,-18.40559981 18.406067,-18.40559981 10.164422,0 18.4056,8.24024601 18.4056,18.40559981 z"
         id="path4122" />
      <ellipse
         style="color:#000000;display:inline;overflow:visible;visibility:visible;opacity:1;fill:none;fill-opacity:1;fill-rule:evenodd;stroke:url(#linearGradient6007);stroke-width:1;stroke-linecap:round;stroke-linejoin:round;stroke-miterlimit:4;stroke-dasharray:none;stroke-dashoffset:0;stroke-opacity:1;marker:none;marker-start:none;marker-mid:none;marker-end:none"
         id="path5991"
         transform="rotate(28.460691)"
         cx="10.60494"
         cy="14.794204"
         rx="20.240932"
         ry="9.457552" />
      <ellipse
         transform="rotate(-43.10261)"
         id="path6009"
         style="color:#000000;display:inline;overflow:visible;visibility:visible;opacity:1;fill:none;fill-opacity:1;fill-rule:evenodd;stroke:url(#linearGradient6011);stroke-width:0.99999994;stroke-linecap:round;stroke-linejoin:round;stroke-miterlimit:4;stroke-dasharray:none;stroke-dashoffset:0;stroke-opacity:1;marker:none;marker-start:none;marker-mid:none;marker-end:none"
         cx="-8.9417543"
         cy="21.935757"
         rx="20.240931"
         ry="9.457552" />
      <g
         transform="matrix(-1.045772,0.767251,0.767251,1.045772,14.820165,-27.24675)"
         id="g4933">
        <circle
           transform="translate(14.95026,22.93047)"
           id="path4935"
           style="color:#000000;display:inline;overflow:visible;visibility:visible;opacity:1;fill:url(#radialGradient5987);fill-opacity:1;fill-rule:evenodd;stroke:none;stroke-width:1;stroke-linecap:round;stroke-linejoin:round;stroke-miterlimit:4;stroke-dasharray:none;stroke-dashoffset:0;stroke-opacity:1;marker:none;marker-start:none;marker-mid:none;marker-end:none"
           cx="12.071323"
           cy="12.493138"
           r="6.7175145" />
        <circle
           style="color:#000000;display:inline;overflow:visible;visibility:visible;opacity:1;fill:#ffffff;fill-opacity:1;fill-rule:evenodd;stroke:none;stroke-width:1;stroke-linecap:round;stroke-linejoin:round;stroke-miterlimit:4;stroke-dasharray:none;stroke-dashoffset:0;stroke-opacity:1;marker:none;marker-start:none;marker-mid:none;marker-end:none"
           id="path4937"
           transform="matrix(0.308271,0,0,0.308271,23.30035,31.57234)"
           cx="12.071323"
           cy="12.493138"
           r="6.7175145" />
      </g>
      <ellipse
         style="color:#000000;display:inline;overflow:visible;visibility:visible;opacity:1;fill:none;fill-opacity:1;fill-rule:evenodd;stroke:url(#linearGradient6015);stroke-width:0.99999982;stroke-linecap:round;stroke-linejoin:round;stroke-miterlimit:4;stroke-dasharray:none;stroke-dashoffset:0;stroke-opacity:1;marker:none;marker-start:none;marker-mid:none;marker-end:none"
         id="path6013"
         transform="rotate(-174.37239)"
         cx="-4.2635756"
         cy="-16.484007"
         rx="20.240929"
         ry="9.45755" />
      <ellipse
         style="color:#000000;display:inline;overflow:visible;visibility:visible;opacity:1;fill:none;fill-opacity:1;fill-rule:evenodd;stroke:url(#linearGradient6019);stroke-width:0.99999928;stroke-linecap:round;stroke-linejoin:round;stroke-miterlimit:4;stroke-dasharray:none;stroke-dashoffset:0;stroke-opacity:1;marker:none;marker-start:none;marker-mid:none;marker-end:none"
         id="path6017"
         transform="matrix(0.73014176,-0.6832957,0.68331862,0.7301203,0,0)"
         cx="-10.134423"
         cy="16.461851"
         rx="19.778389"
         ry="9.241395" />
      <g
         id="g5075"
         transform="matrix(-0.806276,0.59154,0.59154,0.806276,-8.4107048,-23.132)">
        <circle
           transform="translate(14.95026,22.93047)"
           id="path5077"
           style="color:#000000;display:inline;overflow:visible;visibility:visible;opacity:1;fill:url(#radialGradient5983);fill-opacity:1;fill-rule:evenodd;stroke:none;stroke-width:1;stroke-linecap:round;stroke-linejoin:round;stroke-miterlimit:4;stroke-dasharray:none;stroke-dashoffset:0;stroke-opacity:1;marker:none;marker-start:none;marker-mid:none;marker-end:none"
           cx="12.071323"
           cy="12.493138"
           r="6.7175145" />
        <circle
           style="color:#000000;display:inline;overflow:visible;visibility:visible;opacity:1;fill:#ffffff;fill-opacity:1;fill-rule:evenodd;stroke:none;stroke-width:1;stroke-linecap:round;stroke-linejoin:round;stroke-miterlimit:4;stroke-dasharray:none;stroke-dashoffset:0;stroke-opacity:1;marker:none;marker-start:none;marker-mid:none;marker-end:none"
           id="path5079"
           transform="matrix(0.308271,0,0,0.308271,23.30035,31.57234)"
           cx="12.071323"
           cy="12.493138"
           r="6.7175145" />
      </g>
      <g
         transform="matrix(-0.806276,0.59154,0.59154,0.806276,-7.297245,-36.60301)"
         id="g4945">
        <circle
           style="color:#000000;display:inline;overflow:visible;visibility:visible;opacity:1;fill:url(#radialGradient5985);fill-opacity:1;fill-rule:evenodd;stroke:none;stroke-width:1;stroke-linecap:round;stroke-linejoin:round;stroke-miterlimit:4;stroke-dasharray:none;stroke-dashoffset:0;stroke-opacity:1;marker:none;marker-start:none;marker-mid:none;marker-end:none"
           id="path4947"
           transform="translate(14.95026,22.93047)"
           cx="12.071323"
           cy="12.493138"
           r="6.7175145" />
        <circle
           transform="matrix(0.308271,0,0,0.308271,23.30035,31.57234)"
           id="path4949"
           style="color:#000000;display:inline;overflow:visible;visibility:visible;opacity:1;fill:#ffffff;fill-opacity:1;fill-rule:evenodd;stroke:none;stroke-width:1;stroke-linecap:round;stroke-linejoin:round;stroke-miterlimit:4;stroke-dasharray:none;stroke-dashoffset:0;stroke-opacity:1;marker:none;marker-start:none;marker-mid:none;marker-end:none"
           cx="12.071323"
           cy="12.493138"
           r="6.7175145" />
      </g>
      <g
         style="opacity:1"
         id="g4939"
         transform="matrix(-0.870227,0.638572,0.638458,0.870381,4.408685,-40.41557)">
        <circle
           style="color:#000000;display:inline;overflow:visible;visibility:visible;opacity:1;fill:url(#radialGradient5989);fill-opacity:1;fill-rule:evenodd;stroke:none;stroke-width:1;stroke-linecap:round;stroke-linejoin:round;stroke-miterlimit:4;stroke-dasharray:none;stroke-dashoffset:0;stroke-opacity:1;marker:none;marker-start:none;marker-mid:none;marker-end:none"
           id="path4941"
           transform="translate(14.95026,22.93047)"
           cx="12.071323"
           cy="12.493138"
           r="6.7175145" />
        <circle
           transform="matrix(0.308271,0,0,0.308271,23.30035,31.57234)"
           id="path4943"
           style="color:#000000;display:inline;overflow:visible;visibility:visible;opacity:1;fill:#ffffff;fill-opacity:1;fill-rule:evenodd;stroke:none;stroke-width:1;stroke-linecap:round;stroke-linejoin:round;stroke-miterlimit:4;stroke-dasharray:none;stroke-dashoffset:0;stroke-opacity:1;marker:none;marker-start:none;marker-mid:none;marker-end:none"
           cx="12.071323"
           cy="12.493138"
           r="6.7175145" />
      </g>
    </g>
  </g>
</svg>
